<svg xmlns="http://www.w3.org/2000/svg" xmlns:xlink="http://www.w3.org/1999/xlink" width="500" zoomAndPan="magnify" viewBox="0 0 375 374.999991" height="500" preserveAspectRatio="xMidYMid meet" version="1.0"><defs><g/><clipPath id="96ecb40b71"><path d="M 112.5 138 L 188 138 L 188 205 L 112.5 205 Z M 112.5 138 " clip-rule="nonzero"/></clipPath><clipPath id="c6a9f52914"><path d="M 187 104.039062 L 262.5 104.039062 L 262.5 171 L 187 171 Z M 187 104.039062 " clip-rule="nonzero"/></clipPath></defs><g clip-path="url(#96ecb40b71)"><path fill="#f96d00" d="M 163.007812 185.585938 L 163.007812 194.71875 L 121.660156 175.507812 L 121.660156 168.101562 L 163.007812 148.890625 L 163.007812 158.023438 L 131.738281 171.71875 L 131.738281 171.890625 Z M 187.5625 138.746094 L 118.417969 138.746094 C 115.152344 138.746094 112.507812 141.390625 112.507812 144.65625 L 112.507812 198.953125 C 112.507812 202.214844 115.152344 204.863281 118.417969 204.863281 L 168.371094 204.863281 L 187.5625 138.746094 " fill-opacity="1" fill-rule="nonzero"/></g><g clip-path="url(#c6a9f52914)"><path fill="#f2f2f2" d="M 253.355469 141.09375 L 212.007812 160.042969 L 212.007812 150.910156 L 243.96875 137.214844 L 243.96875 137.042969 L 212.007812 123.347656 L 212.007812 114.21875 L 253.355469 133.167969 Z M 206.761719 104.070312 L 187.5625 170.191406 L 256.597656 170.191406 C 259.863281 170.191406 262.511719 167.542969 262.511719 164.277344 L 262.511719 109.980469 C 262.511719 106.71875 259.863281 104.070312 256.597656 104.070312 L 206.761719 104.070312 " fill-opacity="1" fill-rule="nonzero"/></g><g fill="#f2f2f2" fill-opacity="1"><g transform="translate(110.58282, 246.552099)"><g><path d="M 20.71875 -13.640625 C 19.957031 -13.722656 18.976562 -13.765625 17.78125 -13.765625 L 10.578125 -13.765625 L 10.578125 0 L 4.078125 0 L 4.078125 -31.734375 C 4.503906 -31.703125 4.992188 -31.675781 5.546875 -31.65625 L 7.3125 -31.609375 C 8.507812 -31.578125 9.757812 -31.5625 11.0625 -31.5625 C 14.957031 -31.5625 18.675781 -31.625 22.21875 -31.75 C 22.039062 -30.363281 21.953125 -28.507812 21.953125 -26.1875 C 21.953125 -25.925781 21.96875 -25.734375 22 -25.609375 L 21.953125 -25.53125 C 21.117188 -25.769531 19.945312 -25.890625 18.4375 -25.890625 L 10.578125 -25.890625 L 10.578125 -19.375 L 17.515625 -19.375 C 19.253906 -19.375 20.300781 -19.421875 20.65625 -19.515625 Z M 20.71875 -13.640625 "/></g></g></g><g fill="#f2f2f2" fill-opacity="1"><g transform="translate(134.834188, 246.552099)"><g><path d="M 15.46875 0.140625 C 14.71875 0.046875 12.765625 0 9.609375 0 L 8.859375 0 L 8.859375 -26.25 L 4.15625 -26.25 C 2.757812 -26.25 1.9375 -26.175781 1.6875 -26.03125 C 1.4375 -25.894531 1.238281 -25.769531 1.09375 -25.65625 L 1.015625 -25.6875 L 1.015625 -31.75 L 1.09375 -31.828125 C 1.613281 -31.648438 3.019531 -31.5625 5.3125 -31.5625 L 20.203125 -31.5625 C 21.585938 -31.5625 22.40625 -31.632812 22.65625 -31.78125 C 22.914062 -31.925781 23.117188 -32.050781 23.265625 -32.15625 L 23.328125 -32.140625 L 23.328125 -26.0625 L 23.265625 -25.984375 C 22.742188 -26.160156 21.332031 -26.25 19.03125 -26.25 L 15.46875 -26.25 Z M 15.46875 0.140625 "/></g></g></g><g fill="#f2f2f2" fill-opacity="1"><g transform="translate(159.180473, 246.552099)"><g><path d="M 6.671875 -3.75 C 5.234375 -5.125 4.097656 -6.773438 3.265625 -8.703125 C 2.429688 -10.640625 2.015625 -12.757812 2.015625 -15.0625 C 2.015625 -17.363281 2.398438 -19.539062 3.171875 -21.59375 C 3.953125 -23.65625 5.0625 -25.46875 6.5 -27.03125 C 7.9375 -28.601562 9.675781 -29.847656 11.71875 -30.765625 C 13.757812 -31.691406 16.046875 -32.15625 18.578125 -32.15625 C 22.953125 -32.15625 26.632812 -30.78125 29.625 -28.03125 C 32.820312 -25.082031 34.421875 -21.109375 34.421875 -16.109375 C 34.421875 -11.273438 32.773438 -7.25 29.484375 -4.03125 C 27.453125 -2.050781 25.035156 -0.691406 22.234375 0.046875 C 20.859375 0.410156 19.25 0.59375 17.40625 0.59375 C 15.5625 0.59375 13.671875 0.210938 11.734375 -0.546875 C 9.796875 -1.304688 8.109375 -2.375 6.671875 -3.75 Z M 8.609375 -15.375 C 8.609375 -13.90625 8.851562 -12.550781 9.34375 -11.3125 C 9.84375 -10.082031 10.523438 -9.023438 11.390625 -8.140625 C 13.242188 -6.273438 15.625 -5.34375 18.53125 -5.34375 C 21.300781 -5.34375 23.523438 -6.234375 25.203125 -8.015625 C 26.910156 -9.867188 27.765625 -12.394531 27.765625 -15.59375 C 27.765625 -18.601562 26.953125 -21.113281 25.328125 -23.125 C 23.566406 -25.269531 21.160156 -26.34375 18.109375 -26.34375 C 15.148438 -26.34375 12.800781 -25.253906 11.0625 -23.078125 C 9.425781 -21.035156 8.609375 -18.46875 8.609375 -15.375 Z M 8.609375 -15.375 "/></g></g></g><g fill="#f2f2f2" fill-opacity="1"><g transform="translate(195.60499, 246.552099)"><g><path d="M 6.671875 -3.75 C 5.234375 -5.125 4.097656 -6.773438 3.265625 -8.703125 C 2.429688 -10.640625 2.015625 -12.757812 2.015625 -15.0625 C 2.015625 -17.363281 2.398438 -19.539062 3.171875 -21.59375 C 3.953125 -23.65625 5.0625 -25.46875 6.5 -27.03125 C 7.9375 -28.601562 9.675781 -29.847656 11.71875 -30.765625 C 13.757812 -31.691406 16.046875 -32.15625 18.578125 -32.15625 C 22.953125 -32.15625 26.632812 -30.78125 29.625 -28.03125 C 32.820312 -25.082031 34.421875 -21.109375 34.421875 -16.109375 C 34.421875 -11.273438 32.773438 -7.25 29.484375 -4.03125 C 27.453125 -2.050781 25.035156 -0.691406 22.234375 0.046875 C 20.859375 0.410156 19.25 0.59375 17.40625 0.59375 C 15.5625 0.59375 13.671875 0.210938 11.734375 -0.546875 C 9.796875 -1.304688 8.109375 -2.375 6.671875 -3.75 Z M 8.609375 -15.375 C 8.609375 -13.90625 8.851562 -12.550781 9.34375 -11.3125 C 9.84375 -10.082031 10.523438 -9.023438 11.390625 -8.140625 C 13.242188 -6.273438 15.625 -5.34375 18.53125 -5.34375 C 21.300781 -5.34375 23.523438 -6.234375 25.203125 -8.015625 C 26.910156 -9.867188 27.765625 -12.394531 27.765625 -15.59375 C 27.765625 -18.601562 26.953125 -21.113281 25.328125 -23.125 C 23.566406 -25.269531 21.160156 -26.34375 18.109375 -26.34375 C 15.148438 -26.34375 12.800781 -25.253906 11.0625 -23.078125 C 9.425781 -21.035156 8.609375 -18.46875 8.609375 -15.375 Z M 8.609375 -15.375 "/></g></g></g><g fill="#f2f2f2" fill-opacity="1"><g transform="translate(232.029506, 246.552099)"><g><path d="M 10.484375 0.140625 C 8.972656 0.046875 7.171875 0 5.078125 0 L 4.3125 0 L 4.3125 -31.6875 C 5.300781 -31.601562 6 -31.5625 6.40625 -31.5625 L 7.375 -31.5625 C 8.625 -31.5625 9.660156 -31.625 10.484375 -31.75 L 10.484375 -19.109375 L 21.640625 -19.109375 L 21.640625 -31.6875 C 22.953125 -31.601562 24.226562 -31.5625 25.46875 -31.5625 C 26.71875 -31.5625 27.5 -31.625 27.8125 -31.75 L 27.8125 0.140625 C 27.050781 0.046875 25.550781 0 23.3125 0 L 21.640625 0 L 21.640625 -13.40625 L 10.484375 -13.40625 Z M 10.484375 0.140625 "/></g></g></g><g fill="#f2f2f2" fill-opacity="1"><g transform="translate(144.871958, 267.078734)"><g><path d="M 4.46875 0.046875 C 4.25 0.015625 3.6875 0 2.78125 0 L 2.5625 0 L 2.5625 -7.578125 L 1.203125 -7.578125 C 0.796875 -7.578125 0.554688 -7.554688 0.484375 -7.515625 C 0.410156 -7.472656 0.351562 -7.4375 0.3125 -7.40625 L 0.296875 -7.40625 L 0.296875 -9.171875 L 0.3125 -9.1875 C 0.46875 -9.132812 0.875 -9.109375 1.53125 -9.109375 L 5.828125 -9.109375 C 6.234375 -9.109375 6.472656 -9.128906 6.546875 -9.171875 C 6.617188 -9.210938 6.675781 -9.25 6.71875 -9.28125 L 6.734375 -9.28125 L 6.734375 -7.515625 L 6.71875 -7.5 C 6.5625 -7.550781 6.15625 -7.578125 5.5 -7.578125 L 4.46875 -7.578125 Z M 4.46875 0.046875 "/></g></g></g><g fill="#f2f2f2" fill-opacity="1"><g transform="translate(151.899328, 267.078734)"><g><path d="M 5.765625 -1.640625 C 6.046875 -1.640625 6.238281 -1.664062 6.34375 -1.71875 L 6.375 -1.71875 L 6.3125 0 L 1.171875 0 L 1.171875 -9.15625 C 1.296875 -9.144531 1.4375 -9.140625 1.59375 -9.140625 L 2.0625 -9.125 C 2.382812 -9.113281 2.734375 -9.109375 3.109375 -9.109375 C 4.148438 -9.109375 5.1875 -9.128906 6.21875 -9.171875 C 6.164062 -8.765625 6.140625 -8.226562 6.140625 -7.5625 C 6.140625 -7.488281 6.144531 -7.429688 6.15625 -7.390625 L 6.140625 -7.375 C 5.898438 -7.4375 5.5625 -7.46875 5.125 -7.46875 L 2.96875 -7.46875 L 2.96875 -5.734375 L 4.59375 -5.734375 C 5.09375 -5.734375 5.394531 -5.742188 5.5 -5.765625 L 5.515625 -4.078125 C 5.296875 -4.097656 5.015625 -4.109375 4.671875 -4.109375 L 2.96875 -4.109375 L 2.96875 -1.640625 Z M 5.765625 -1.640625 "/></g></g></g><g fill="#f2f2f2" fill-opacity="1"><g transform="translate(158.926698, 267.078734)"><g><path d="M 5.265625 -9.28125 C 6.117188 -9.28125 6.847656 -9.132812 7.453125 -8.84375 L 7.453125 -6.734375 L 7.4375 -6.734375 C 7.175781 -7.117188 6.632812 -7.378906 5.8125 -7.515625 C 5.570312 -7.554688 5.265625 -7.578125 4.890625 -7.578125 C 4.523438 -7.578125 4.164062 -7.503906 3.8125 -7.359375 C 3.457031 -7.222656 3.164062 -7.023438 2.9375 -6.765625 C 2.488281 -6.265625 2.265625 -5.554688 2.265625 -4.640625 C 2.265625 -3.566406 2.546875 -2.765625 3.109375 -2.234375 C 3.578125 -1.796875 4.191406 -1.578125 4.953125 -1.578125 C 5.828125 -1.578125 6.535156 -1.765625 7.078125 -2.140625 C 7.265625 -2.273438 7.429688 -2.4375 7.578125 -2.625 L 7.59375 -2.609375 L 7.59375 -0.703125 C 6.894531 -0.117188 5.953125 0.171875 4.765625 0.171875 C 3.367188 0.171875 2.28125 -0.269531 1.5 -1.15625 C 0.738281 -2 0.359375 -3.117188 0.359375 -4.515625 C 0.359375 -5.992188 0.773438 -7.15625 1.609375 -8 C 2.441406 -8.851562 3.660156 -9.28125 5.265625 -9.28125 Z M 5.265625 -9.28125 "/></g></g></g><g fill="#f2f2f2" fill-opacity="1"><g transform="translate(167.063652, 267.078734)"><g><path d="M 3.03125 0.046875 C 2.59375 0.015625 2.070312 0 1.46875 0 L 1.25 0 L 1.25 -9.140625 C 1.53125 -9.117188 1.726562 -9.109375 1.84375 -9.109375 L 2.125 -9.109375 C 2.488281 -9.109375 2.789062 -9.128906 3.03125 -9.171875 L 3.03125 -5.515625 L 6.25 -5.515625 L 6.25 -9.140625 C 6.625 -9.117188 6.988281 -9.109375 7.34375 -9.109375 C 7.707031 -9.109375 7.9375 -9.128906 8.03125 -9.171875 L 8.03125 0.046875 C 7.8125 0.015625 7.378906 0 6.734375 0 L 6.25 0 L 6.25 -3.875 L 3.03125 -3.875 Z M 3.03125 0.046875 "/></g></g></g><g fill="#f2f2f2" fill-opacity="1"><g transform="translate(176.406082, 267.078734)"><g><path d="M 1.234375 0 C 1.265625 -0.15625 1.28125 -0.320312 1.28125 -0.5 L 1.28125 -9.109375 L 2.65625 -9.109375 L 6.28125 -3.390625 L 6.28125 -8.640625 C 6.28125 -8.890625 6.257812 -9.046875 6.21875 -9.109375 L 8.0625 -9.109375 C 8.039062 -8.929688 8.03125 -8.734375 8.03125 -8.515625 L 8.03125 0 L 6.609375 0 L 3.03125 -5.484375 L 3.03125 0 Z M 1.234375 0 "/></g></g></g><g fill="#f2f2f2" fill-opacity="1"><g transform="translate(185.714271, 267.078734)"><g><path d="M 1.921875 -1.078125 C 1.503906 -1.472656 1.175781 -1.945312 0.9375 -2.5 C 0.695312 -3.0625 0.578125 -3.675781 0.578125 -4.34375 C 0.578125 -5.007812 0.6875 -5.640625 0.90625 -6.234375 C 1.132812 -6.828125 1.457031 -7.347656 1.875 -7.796875 C 2.289062 -8.253906 2.789062 -8.613281 3.375 -8.875 C 3.96875 -9.144531 4.628906 -9.28125 5.359375 -9.28125 C 6.617188 -9.28125 7.679688 -8.882812 8.546875 -8.09375 C 9.472656 -7.238281 9.9375 -6.09375 9.9375 -4.65625 C 9.9375 -3.257812 9.460938 -2.097656 8.515625 -1.171875 C 7.921875 -0.597656 7.222656 -0.203125 6.421875 0.015625 C 6.023438 0.117188 5.5625 0.171875 5.03125 0.171875 C 4.5 0.171875 3.953125 0.0625 3.390625 -0.15625 C 2.828125 -0.375 2.335938 -0.679688 1.921875 -1.078125 Z M 2.484375 -4.4375 C 2.484375 -4.007812 2.550781 -3.617188 2.6875 -3.265625 C 2.832031 -2.910156 3.03125 -2.601562 3.28125 -2.34375 C 3.820312 -1.8125 4.507812 -1.546875 5.34375 -1.546875 C 6.144531 -1.546875 6.789062 -1.800781 7.28125 -2.3125 C 7.769531 -2.851562 8.015625 -3.582031 8.015625 -4.5 C 8.015625 -5.363281 7.78125 -6.085938 7.3125 -6.671875 C 6.800781 -7.296875 6.109375 -7.609375 5.234375 -7.609375 C 4.378906 -7.609375 3.695312 -7.289062 3.1875 -6.65625 C 2.71875 -6.070312 2.484375 -5.332031 2.484375 -4.4375 Z M 2.484375 -4.4375 "/></g></g></g><g fill="#f2f2f2" fill-opacity="1"><g transform="translate(196.227934, 267.078734)"><g><path d="M 2.515625 0 C 1.835938 0 1.390625 0.015625 1.171875 0.046875 L 1.171875 -9.15625 C 1.285156 -9.125 1.515625 -9.109375 1.859375 -9.109375 C 2.203125 -9.109375 2.601562 -9.117188 3.0625 -9.140625 L 3.0625 -1.640625 L 4.484375 -1.640625 C 4.890625 -1.640625 5.21875 -1.65625 5.46875 -1.6875 C 5.4375 -0.613281 5.421875 -0.0546875 5.421875 -0.015625 L 5.421875 0.046875 C 4.972656 0.015625 4.222656 0 3.171875 0 Z M 2.515625 0 "/></g></g></g><g fill="#f2f2f2" fill-opacity="1"><g transform="translate(202.084082, 267.078734)"><g><path d="M 1.921875 -1.078125 C 1.503906 -1.472656 1.175781 -1.945312 0.9375 -2.5 C 0.695312 -3.0625 0.578125 -3.675781 0.578125 -4.34375 C 0.578125 -5.007812 0.6875 -5.640625 0.90625 -6.234375 C 1.132812 -6.828125 1.457031 -7.347656 1.875 -7.796875 C 2.289062 -8.253906 2.789062 -8.613281 3.375 -8.875 C 3.96875 -9.144531 4.628906 -9.28125 5.359375 -9.28125 C 6.617188 -9.28125 7.679688 -8.882812 8.546875 -8.09375 C 9.472656 -7.238281 9.9375 -6.09375 9.9375 -4.65625 C 9.9375 -3.257812 9.460938 -2.097656 8.515625 -1.171875 C 7.921875 -0.597656 7.222656 -0.203125 6.421875 0.015625 C 6.023438 0.117188 5.5625 0.171875 5.03125 0.171875 C 4.5 0.171875 3.953125 0.0625 3.390625 -0.15625 C 2.828125 -0.375 2.335938 -0.679688 1.921875 -1.078125 Z M 2.484375 -4.4375 C 2.484375 -4.007812 2.550781 -3.617188 2.6875 -3.265625 C 2.832031 -2.910156 3.03125 -2.601562 3.28125 -2.34375 C 3.820312 -1.8125 4.507812 -1.546875 5.34375 -1.546875 C 6.144531 -1.546875 6.789062 -1.800781 7.28125 -2.3125 C 7.769531 -2.851562 8.015625 -3.582031 8.015625 -4.5 C 8.015625 -5.363281 7.78125 -6.085938 7.3125 -6.671875 C 6.800781 -7.296875 6.109375 -7.609375 5.234375 -7.609375 C 4.378906 -7.609375 3.695312 -7.289062 3.1875 -6.65625 C 2.71875 -6.070312 2.484375 -5.332031 2.484375 -4.4375 Z M 2.484375 -4.4375 "/></g></g></g><g fill="#f2f2f2" fill-opacity="1"><g transform="translate(212.597745, 267.078734)"><g><path d="M 8.6875 -5.5 C 8.601562 -5.34375 8.5625 -4.96875 8.5625 -4.375 L 8.5625 -2.25 C 8.5625 -1.601562 8.226562 -1.046875 7.5625 -0.578125 C 6.863281 -0.078125 6.015625 0.171875 5.015625 0.171875 C 3.628906 0.171875 2.523438 -0.265625 1.703125 -1.140625 C 0.898438 -1.972656 0.5 -3.03125 0.5 -4.3125 C 0.5 -5.6875 0.90625 -6.828125 1.71875 -7.734375 C 2.625 -8.765625 3.875 -9.28125 5.46875 -9.28125 C 6.539062 -9.28125 7.382812 -9.078125 8 -8.671875 L 7.890625 -6.640625 L 7.84375 -6.625 C 7.675781 -6.90625 7.359375 -7.132812 6.890625 -7.3125 C 6.441406 -7.488281 5.972656 -7.578125 5.484375 -7.578125 C 4.992188 -7.578125 4.5625 -7.5 4.1875 -7.34375 C 3.820312 -7.1875 3.515625 -6.960938 3.265625 -6.671875 C 2.722656 -6.085938 2.453125 -5.3125 2.453125 -4.34375 C 2.453125 -3.488281 2.691406 -2.804688 3.171875 -2.296875 C 3.640625 -1.796875 4.25 -1.546875 5 -1.546875 C 5.820312 -1.546875 6.378906 -1.757812 6.671875 -2.1875 C 6.765625 -2.320312 6.8125 -2.476562 6.8125 -2.65625 L 6.8125 -3.78125 L 5.921875 -3.78125 C 5.453125 -3.78125 5.195312 -3.742188 5.15625 -3.671875 L 5.125 -3.671875 L 5.0625 -5.453125 C 5.195312 -5.421875 5.71875 -5.40625 6.625 -5.40625 L 7.4375 -5.40625 C 7.9375 -5.40625 8.347656 -5.441406 8.671875 -5.515625 Z M 8.6875 -5.5 "/></g></g></g><g fill="#f2f2f2" fill-opacity="1"><g transform="translate(221.940175, 267.078734)"><g><path d="M 3.09375 0 C 3.144531 -0.175781 3.171875 -0.59375 3.171875 -1.25 L 3.171875 -3.15625 C 2.390625 -4.894531 1.890625 -5.976562 1.671875 -6.40625 C 1.453125 -6.84375 1.265625 -7.1875 1.109375 -7.4375 C 0.628906 -8.238281 0.34375 -8.695312 0.25 -8.8125 C 0.15625 -8.9375 0.0546875 -9.035156 -0.046875 -9.109375 L 2.3125 -9.109375 C 2.363281 -9.015625 2.429688 -8.878906 2.515625 -8.703125 L 4.171875 -5.203125 C 4.253906 -5.398438 4.347656 -5.613281 4.453125 -5.84375 C 5.453125 -7.988281 5.957031 -9.078125 5.96875 -9.109375 L 8.234375 -9.109375 C 7.992188 -8.921875 7.707031 -8.53125 7.375 -7.9375 C 7.269531 -7.757812 7.164062 -7.554688 7.0625 -7.328125 L 5.515625 -4.09375 C 5.335938 -3.707031 5.1875 -3.359375 5.0625 -3.046875 L 5.0625 -1.078125 C 5.0625 -0.617188 5.085938 -0.257812 5.140625 0 Z M 3.09375 0 "/></g></g></g></svg>